<svg width="256" height="256" viewBox="0 0 256 256" fill="none" xmlns="http://www.w3.org/2000/svg">
<rect width="256" height="256" rx="36" fill="#302F2F"/>
<path d="M237.643 104.329L198.07 81.4894C194.105 79.1896 189.584 78 184.985 78H73.007C70.4931 78 67.995 78.3569 65.6 79.0547C49.7232 83.7099 34.5761 96.1211 20.3489 104.329C19.276 104.959 18.4925 105.984 18.1664 107.185C17.8402 108.386 17.9974 109.666 18.6042 110.753L40.7301 149.057C41.3601 150.13 42.3854 150.913 43.5861 151.239C44.7868 151.565 46.0675 151.408 47.1538 150.801L65.5841 140.159V238.48C65.5841 241.811 68.2805 244.428 71.532 244.428H186.492C189.822 244.428 192.439 241.732 192.439 238.48V140.222L210.679 150.801C212.979 152.07 215.834 151.357 217.103 149.057L239.229 110.753C240.736 108.532 239.943 105.677 237.643 104.329Z" fill="#00F397"/>
<path d="M93.2138 78V78.9199C93.2138 98.2068 109.297 113.893 129.075 113.893C148.862 113.893 164.945 98.2068 164.945 78.9199V78H93.2138Z" fill="#05CB80"/>
<path d="M192.471 133.434H65.5841V157.225H192.471V133.434Z" fill="#5092FF"/>
<path d="M97.3693 78C97.3693 95.4311 111.597 109.563 129.028 109.563C146.459 109.563 160.749 95.4311 160.749 78H168.743C168.743 99.8087 150.836 117.494 129.028 117.494C107.219 117.494 89.312 99.8087 89.312 78H97.3693Z" fill="#FFF478"/>
<path d="M123 15C123 11.6863 125.686 9 129 9V9C132.314 9 135 11.6863 135 15V34V53C135 56.3137 132.314 59 129 59V59C125.686 59 123 56.3137 123 53V15Z" fill="white"/>
<rect x="62" y="20" width="12" height="50" rx="6" transform="rotate(-30 62 20)" fill="white"/>
<rect x="185.5" y="14" width="12" height="50" rx="6" transform="rotate(30 185.5 14)" fill="white"/>
</svg>
